<svg xmlns="http://www.w3.org/2000/svg" xmlns:xlink="http://www.w3.org/1999/xlink" width="52.631" height="52.634" viewBox="0 0 52.631 52.634">
  <defs>
    <clipPath id="clip-path">
      <rect id="Rectangle_102" data-name="Rectangle 102" width="52.631" height="52.634" fill="#ededed"/>
    </clipPath>
  </defs>
  <g id="Group_39" data-name="Group 39" clip-path="url(#clip-path)">
    <path id="Path_216" data-name="Path 216" d="M39.36,52.634h-26.1c-.556-.085-1.12-.137-1.667-.262A14.064,14.064,0,0,1,.434,41.789C.215,41.007.141,40.184,0,39.38v-26.1c.031-.182.072-.363.091-.546a12.608,12.608,0,0,1,1.085-4.1C3.814,3.092,8.219.125,14.364.051c7.963-.1,15.928-.026,23.892-.022a13.622,13.622,0,0,1,7.026,1.81,13.991,13.991,0,0,1,7.324,12.695c.043,7.859.02,15.72,0,23.579a13.833,13.833,0,0,1-.269,2.959A14,14,0,0,1,41.778,52.2c-.785.22-1.611.294-2.417.435m10.174-26.3c0-3.921.015-7.842-.012-11.762a12.178,12.178,0,0,0-.259-2.649A11.108,11.108,0,0,0,38.18,3.114Q26.312,3.1,14.445,3.122a11.478,11.478,0,0,0-2.547.256A11.11,11.11,0,0,0,3.087,14.462q-.015,11.865.008,23.73a11.893,11.893,0,0,0,.24,2.5,11.124,11.124,0,0,0,11,8.857c7.98.022,15.96.007,23.94,0a10.5,10.5,0,0,0,4.678-1A10.953,10.953,0,0,0,49.523,38.2c.055-3.954.011-7.91.011-11.865" transform="translate(0 0)" fill="#ededed"/>
    <path id="Path_217" data-name="Path 217" d="M66.868,81.337a14.383,14.383,0,1,1,14.367-14.4,14.435,14.435,0,0,1-14.367,14.4M78.15,66.944a11.3,11.3,0,1,0-11.3,11.309,11.34,11.34,0,0,0,11.3-11.309" transform="translate(-40.54 -40.623)" fill="#ededed"/>
    <path id="Path_218" data-name="Path 218" d="M166.068,38.576a4.249,4.249,0,1,1,4.327-4.221,4.277,4.277,0,0,1-4.327,4.221m.084-5.4a1.158,1.158,0,1,0,1.15,1.154,1.2,1.2,0,0,0-1.15-1.154" transform="translate(-125.103 -23.243)" fill="#ededed"/>
  </g>
</svg>
