<svg xmlns="http://www.w3.org/2000/svg" xmlns:xlink="http://www.w3.org/1999/xlink" width="52.518" height="52.507" viewBox="0 0 52.518 52.507">
  <defs>
    <clipPath id="clip-path">
      <rect id="Rectangle_104" data-name="Rectangle 104" width="52.518" height="52.507" fill="none"/>
    </clipPath>
  </defs>
  <g id="Group_43" data-name="Group 43" clip-path="url(#clip-path)">
    <path id="Path_223" data-name="Path 223" d="M44.946,50.891H7.7a2.148,2.148,0,0,0-.271-.084,6.611,6.611,0,0,1-5.44-4.852c-.1-.331-.162-.676-.24-1.015V7.7c.034-.137.075-.272.1-.41A6.68,6.68,0,0,1,8.39,1.76q17.944-.017,35.89,0a6.641,6.641,0,0,1,6.61,6.6q.026,17.966,0,35.93A6.642,6.642,0,0,1,46.1,50.607C45.722,50.718,45.332,50.8,44.946,50.891Z" transform="translate(-0.067 -0.067)" fill="none" stroke="#ededed" stroke-miterlimit="10" stroke-width="3.5"/>
    <path id="Path_224" data-name="Path 224" d="M28.706,24.215a6.352,6.352,0,0,1,3.985-2.476,9.233,9.233,0,0,1,5.685.515,6.521,6.521,0,0,1,3.584,5.133,22.865,22.865,0,0,1,.374,3.808c.053,3.341.025,6.683.027,10.025,0,.855-.34,1.2-1.187,1.2q-2.158,0-4.318,0c-.8,0-1.145-.337-1.146-1.136,0-2.958.033-5.916-.013-8.873a14.346,14.346,0,0,0-.369-3.121,2.679,2.679,0,0,0-2.393-2.118A3.163,3.163,0,0,0,29.573,28.6a5.893,5.893,0,0,0-.885,3.239c-.009,3.069,0,6.14,0,9.209,0,1.116-.269,1.382-1.388,1.382q-1.943,0-3.886,0c-.862,0-1.2-.333-1.2-1.177q0-9.113,0-18.227c0-.834.325-1.161,1.161-1.163q2.086-.007,4.174,0c.828,0,1.154.335,1.164,1.17,0,.4,0,.79,0,1.185" transform="translate(-0.847 -0.821)" fill="#ededed"/>
    <path id="Path_225" data-name="Path 225" d="M12.422,32.11q0-4.461,0-8.921c0-.978.343-1.323,1.329-1.325q1.942-.006,3.885,0c.912,0,1.274.368,1.275,1.29q0,8.993,0,17.986c0,.94-.371,1.3-1.311,1.3q-1.943,0-3.886,0c-.937,0-1.292-.362-1.293-1.314q0-4.509,0-9.017" transform="translate(-0.474 -0.834)" fill="#ededed"/>
    <path id="Path_226" data-name="Path 226" d="M19.54,16.015a3.9,3.9,0,1,1-7.8-.108,3.9,3.9,0,0,1,7.8.108" transform="translate(-0.448 -0.461)" fill="#ededed"/>
  </g>
</svg>
